<svg xmlns="http://www.w3.org/2000/svg" width="64" height="64" viewBox="0 0 64 64">
    <defs>
        <linearGradient id="a" x1="50%" x2="50%" y1="0%" y2="100%">
            <stop offset="0%" stop-color="#FAD961"/>
            <stop offset="100%" stop-color="#F76B1C"/>
        </linearGradient>
    </defs>
    <g fill="none" fill-rule="evenodd">
        <path fill="url(#a)" d="M64 32c0 17.672-14.324 32-32 32C14.328 64 0 49.672 0 32S14.328 0 32 0c17.676 0 32 14.328 32 32"/>
        <path fill="#FEFEFE" d="M48.283 11.641L36.357 3.204a1.987 1.987 0 0 0-1.964-.181L14.55 12.132a1.98 1.98 0 0 0-1.154 1.798v33.63c0 1.095.885 1.976 1.976 1.976 1.09 0 1.976-.881 1.976-1.976V15.196L33.433 7.81v45.68c0 1.095.885 1.977 1.976 1.977a1.972 1.972 0 0 0 1.975-1.977V8.775l7.78 5.503V48.39a1.977 1.977 0 0 0 3.951 0l.001-35.136c0-.64-.312-1.241-.833-1.613"/>
        <path fill="#FEFEFE" d="M28.114 15.72a.382.382 0 0 0-.36-.05l-8.15 3.226a.412.412 0 0 0-.255.395v3.04c0 .136.059.267.165.344.063.05.145.08.223.08.044 0 .09-.008.13-.025l8.153-3.087a.42.42 0 0 0 .26-.399v-3.176a.442.442 0 0 0-.166-.348M27.761 24.198l-8.145 3.08a.435.435 0 0 0-.267.415v3.155a.46.46 0 0 0 .157.353c.07.057.153.088.235.088.04 0 .075-.009.11-.018l8.15-2.684c.164-.057.278-.229.278-.427v-3.543a.447.447 0 0 0-.16-.357.377.377 0 0 0-.358-.062M27.788 32.724l-8.149 2.13a.391.391 0 0 0-.29.377v2.78a.38.38 0 0 0 .388.389.488.488 0 0 0 .079-.008l8.149-1.637a.391.391 0 0 0 .314-.38V33.1a.396.396 0 0 0-.49-.377M27.82 39.83l-8.15 1.652c-.188.04-.321.22-.321.436v3.148a.48.48 0 0 0 .13.335c.074.07.164.11.258.11.016 0 .036-.004.051-.004l8.15-1.194c.196-.03.341-.215.341-.44v-3.607a.472.472 0 0 0-.137-.339.357.357 0 0 0-.322-.097"/>
    </g>
</svg>
